{
  "accessors": [
    {
      "bufferView": 2,
      "componentType": 5126,
      "count": 1006,
      "max": [
        3.1922099590301514,
        3.1922099590301514,
        1.8730800151824951
      ],
      "min": [
        -3.192379951477051,
        -3.1921699047088623,
        -1.3056399822235107
      ],
      "type": "VEC3"
    },
    {
      "bufferView": 2,
      "byteOffset": 12072,
      "componentType": 5126,
      "count": 1006,
      "max": [
        0.9901025295257568,
        0.9990941882133484,
        0.9999967217445374
      ],
      "min": [
        -0.9932644367218018,
        -0.9986573457717896,
        -0.9996102452278137
      ],
      "type": "VEC3"
    },
    {
      "bufferView": 1,
      "componentType": 5126,
      "count": 1006,
      "max": [
        0.9997400045394897,
        0.9685900211334229
      ],
      "min": [
        0.00026000000070780516,
        0.03650999814271927
      ],
      "type": "VEC2"
    },
    {
      "bufferView": 0,
      "componentType": 5125,
      "count": 5202,
      "type": "SCALAR"
    }
  ],
  "asset": {
    "extras": {
      "author": "Christian Gentry (https://sketchfab.com/christianjgentry)",
      "license": "CC-BY-4.0 (http://creativecommons.org/licenses/by/4.0/)",
      "source": "https://sketchfab.com/3d-models/tide-pod-dde96850d198479ea2cbee762ca2da26",
      "title": "Tide Pod"
    },
    "generator": "Sketchfab-12.67.0",
    "version": "2.0"
  },
  "bufferViews": [
    {
      "buffer": 0,
      "byteLength": 20808,
      "name": "floatBufferViews",
      "target": 34963
    },
    {
      "buffer": 0,
      "byteLength": 8048,
      "byteOffset": 20808,
      "byteStride": 8,
      "name": "floatBufferViews",
      "target": 34962
    },
    {
      "buffer": 0,
      "byteLength": 24144,
      "byteOffset": 28856,
      "byteStride": 12,
      "name": "floatBufferViews",
      "target": 34962
    }
  ],
  "buffers": [
    {
      "byteLength": 53000,
      "uri": "scene.bin"
    }
  ],
  "images": [
    {
      "uri": "textures/Tide_Pod_baseColor.jpeg"
    }
  ],
  "materials": [
    {
      "name": "Tide_Pod",
      "pbrMetallicRoughness": {
        "baseColorTexture": {
          "index": 0
        },
        "metallicFactor": 0.0,
        "roughnessFactor": 0.1053734756
      }
    }
  ],
  "meshes": [
    {
      "name": "Tide Pod_0",
      "primitives": [
        {
          "attributes": {
            "NORMAL": 1,
            "POSITION": 0,
            "TEXCOORD_0": 2
          },
          "indices": 3,
          "material": 0,
          "mode": 4
        }
      ]
    }
  ],
  "nodes": [
    {
      "children": [
        1
      ],
      "matrix": [
        0.020893756300210953,
        0.0,
        0.0,
        0.0,
        0.0,
        4.639345863080225e-18,
        -0.020893756300210953,
        0.0,
        0.0,
        0.020893756300210953,
        4.639345863080225e-18,
        0.0,
        0.0,
        0.0,
        0.0,
        1.0
      ],
      "name": "Sketchfab_model"
    },
    {
      "children": [
        2
      ],
      "name": "Root"
    },
    {
      "children": [
        3
      ],
      "name": "Tide Pod"
    },
    {
      "mesh": 0,
      "name": "Tide Pod_0"
    }
  ],
  "samplers": [
    {
      "magFilter": 9729,
      "minFilter": 9987,
      "wrapS": 10497,
      "wrapT": 10497
    }
  ],
  "scene": 0,
  "scenes": [
    {
      "name": "Sketchfab_Scene",
      "nodes": [
        0
      ]
    }
  ],
  "textures": [
    {
      "sampler": 0,
      "source": 0
    }
  ]
}
